<?xml version="1.0" encoding="utf-8"?>
<!-- Generator: Adobe Illustrator 19.0.0, SVG Export Plug-In . SVG Version: 6.00 Build 0)  -->
<svg version="1.1" xmlns="http://www.w3.org/2000/svg" xmlns:xlink="http://www.w3.org/1999/xlink" x="0px" y="0px"
	 viewBox="0 0 1280 768" style="enable-background:new 0 0 1280 768;" xml:space="preserve">
<style type="text/css">
	.st0{fill:#85BFB9;}
	.st1{fill:#DB644C;}
	.st2{fill:#FFFFFF;}
	.st3{fill:#939392;}
	.st4{fill:#72706E;}
	.st5{fill:#898680;}
	.st6{fill:#91908E;}
	.st7{fill:#8E8E8D;}
	.st8{fill:#777672;}
	.st9{fill:#EDEDED;}
	.st10{fill:#F8D4A6;stroke:#000000;stroke-miterlimit:10;}
	.st11{fill:#F1B757;stroke:#000000;stroke-miterlimit:10;}
	.st12{fill:#D98429;}
</style>
<g id="圖層_5">
	<rect id="XMLID_18_" class="st0" width="1280" height="768"/>
</g>
<g id="圖層_6">
	<circle id="XMLID_19_" class="st1" cx="655.6" cy="337.9" r="273.8"/>
	<path id="XMLID_21_" class="st2" d="M141.3,156.6c-10-7.3-23.6-4.6-29.4,4.3c-4.9,7.4-3.8,18.1,3.2,25.3
		c-8.8,8.2-9.3,21.5-2.3,29.4c5.9,6.5,16.1,8.4,24.8,4.1c10.7,13,26.5,17,37,11.3c6.8-3.7,9.7-10.7,10.8-14c9.7,6.7,21.9,5,27.5-2.3
		c5.9-7.6,2-18,1.8-18.5c10-1.5,17-10.5,16.3-19.9c-0.7-8.3-7.4-15.4-16.3-16.7c-0.8-8.8-6.6-16.4-14.9-19.4c-8.1-2.9-17.2-1-23.5,5
		c-1.1-0.8-8.7-6.3-18.5-4.1C145.6,143.8,141.5,156,141.3,156.6z"/>
	<path id="XMLID_20_" class="st2" d="M1043.1,72.8c-17.8-12.6-38.2-7-43.4,3.5c-4,8.1,0,21.2,10.6,30.5c-9.5,13.6-5.5,30.5,4.7,36.4
		c7.1,4.1,17.3,2.8,25.3-3.2c-2.1,18.2,8.7,35.2,25.1,40.7c18.2,6.1,39.1-3.4,46.9-22.3c22.2,12.2,48.1,8.5,62.2-7
		c13.2-14.6,11-34.1,10.6-37.5c0.8-0.2,19.5-4.4,24.6-19.9c4.9-14.8-4.4-33.9-23.5-41c-16.6-15.9-39-20.3-55.1-11.7
		c-10.4,5.5-15.5,15-17.6,19.9c-16-19-40.1-23.7-55.1-14.1C1046.4,54.7,1043.7,69.1,1043.1,72.8z"/>
	<path id="XMLID_22_" class="st2" d="M363.4,64.8c-10-7.3-23.6-4.6-29.4,4.3c-4.9,7.4-3.8,18.1,3.2,25.3c-8.8,8.2-9.3,21.5-2.3,29.4
		c5.9,6.5,16.1,8.4,24.8,4.1c10.7,13,26.5,17,37,11.3c6.8-3.7,9.7-10.7,10.8-14c9.7,6.7,21.9,5,27.5-2.3c5.9-7.6,2-18,1.8-18.5
		c10-1.5,17-10.5,16.3-19.9c-0.7-8.3-7.4-15.4-16.3-16.7c-0.8-8.8-6.6-16.4-14.9-19.4c-8.1-2.9-17.2-1-23.5,5
		c-1.1-0.8-8.7-6.3-18.5-4.1C367.7,52,363.6,64.2,363.4,64.8z"/>
	<path id="XMLID_23_" class="st2" d="M915.5,204c-10-7.3-23.6-4.6-29.4,4.3c-4.9,7.4-3.8,18.1,3.2,25.3c-8.8,8.2-9.3,21.5-2.3,29.4
		c5.9,6.5,16.1,8.4,24.8,4.1c10.7,13,26.5,17,37,11.3c6.8-3.7,9.7-10.7,10.8-14c9.7,6.7,21.9,5,27.5-2.3c5.9-7.6,2-18,1.8-18.5
		c10-1.5,17-10.5,16.3-19.9c-0.7-8.3-7.4-15.4-16.3-16.7c-0.8-8.8-6.6-16.4-14.9-19.4c-8.1-2.9-17.2-1-23.5,5
		c-1.1-0.8-8.7-6.3-18.5-4.1C919.8,191.2,915.6,203.4,915.5,204z"/>
</g>
<g id="圖層_4">
	<polygon id="XMLID_2_" class="st3" points="120.4,251.2 -100.6,598.7 325.8,598.7 	"/>
	<polygon id="XMLID_12_" class="st4" points="618.5,424.9 397.5,772.4 823.8,772.4 	"/>
	<polygon id="XMLID_7_" class="st5" points="831.7,337.9 610.7,685.4 1037,685.4 	"/>
	<polygon id="XMLID_5_" class="st6" points="510.8,337.9 294.1,678.5 712,678.5 	"/>
	<polygon id="XMLID_8_" class="st7" points="918.3,277 658.1,666.3 1159.9,666.3 	"/>
	<polygon id="XMLID_6_" class="st8" points="1131.6,312.7 929.4,630.6 1319.5,630.6 	"/>
	<polygon id="XMLID_9_" class="st8" points="331.3,344.6 174,598.7 477.6,598.7 	"/>
	<polygon id="XMLID_11_" class="st9" points="510.8,337.9 477.6,390.1 541.6,390.1 	"/>
	<path id="XMLID_10_" class="st9" d="M1721.9-189.5"/>
	<polygon id="XMLID_14_" class="st9" points="918.3,277 972.3,364 860.1,364 	"/>
	<polygon id="XMLID_16_" class="st9" points="1131.6,312.7 1177.4,390.1 1082.4,390.1 	"/>
	<polygon id="XMLID_17_" class="st9" points="120.4,251.2 156.8,312.7 81.3,312.7 	"/>
</g>
<g id="圖層_3">
	<path id="XMLID_3_" class="st10" d="M1612.3,768c0-60.4,0,0.2,0-60.2c-77.8-15.2-192.7-43-325.8-96.3
		c-158.2-63.4-190-102.1-279.3-103.3c-127.7-1.8-170.5,77.4-344.1,155.2c-90.8,40.7-226.3,85.9-419.1,102.7
		C589.4,766.7,1267,767.4,1612.3,768z"/>
</g>
<g id="圖層_1">
	<path id="XMLID_1_" class="st11" d="M-351.5,666.3V768h1963.7v-60.2c-225.8,12.6-722.2-39.3-830.5-70.6
		c-249.1-72.1-392.5-243.9-590.5-183.3c-86,26.3-140.1,79.5-338.3,150.5C-231.7,634.9-303.3,654.4-351.5,666.3z"/>
</g>
<g id="圖層_2">
	<path id="XMLID_4_" class="st12" d="M741.2,624.7c15.5,11.2,34.1,22.7,55.9,33.5c75.1,37.2,332.6,69.5,380.3,72
		c77.6,1.3,107-0.5,195.4-12.8c11.6-1.6,228.2-7.8,239.5-9.6c-81,5.7-470.4-14.7-596-33C928,661.9,800.9,643.7,741.2,624.7z"/>
</g>
</svg>
